<svg xmlns="http://www.w3.org/2000/svg" xml:space="preserve" width="2048" height="2048"
     style="shape-rendering:geometricPrecision;text-rendering:geometricPrecision;image-rendering:optimizeQuality;fill-rule:evenodd;clip-rule:evenodd"><defs><style>.fil0{fill:#212121;fill-rule:nonzero}</style></defs>
    <g id="Layer_x0020_1"><path class="fil0" d="m1194.44 764.695 69.65 120.638-27.624 16 27.713-16c.504.87.958 1.756 1.37 2.652l69.331 120.085.12-.07c6.465 11.197 5.392 24.677-1.641 34.566l-69.268 119.976-27.625-15.875 27.713 16c-.37.64-.759 1.26-1.165 1.865l-69.723 120.764.066.038c-6.436 11.147-18.567 16.955-30.597 15.875H1024v.124H882.356c-12.662 0-23.606-7.357-28.795-18.028l-69.65-120.638 27.624-16-27.713 16a32.227 32.227 0 0 1-1.37-2.652L713.12 1039.93l-.12.07c-6.465-11.197-5.392-24.677 1.641-34.566l69.268-119.976 27.625 15.875-27.713-16c.37-.64.76-1.26 1.165-1.865l69.723-120.764-.066-.038c6.436-11.147 18.567-16.955 30.597-15.875H1024v-.124h141.644c12.662 0 23.606 7.357 28.795 18.028zm14.379 152.601-61.562-106.628h-123.256v-.125l-123.183-.001-60.534 104.845a32.787 32.787 0 0 1-1.034 1.946l-.066-.038-.023.038-.054-.032-61.602 106.7 60.134 104.155a32.48 32.48 0 0 1 1.61 2.511l-.065.038 61.561 106.628h123.256v.125l123.183.001 60.534-104.845c.321-.655.665-1.305 1.035-1.946l.066.038.022-.038.055.032 61.601-106.7-60.133-104.155a32.48 32.48 0 0 1-1.611-2.511l.066-.038z"/>
        <path class="fil0"
              d="m1147.26 746.665 61.562-106.628-.067-.038a32.484 32.484 0 0 1 1.611-2.51l60.134-104.157-61.602-106.699-.054.032-.022-.038-.067.038a32.792 32.792 0 0 1-1.034-1.946l-60.534-104.845h-123.183V320H900.748l-61.562 106.628.066.038a32.484 32.484 0 0 1-1.61 2.51l-60.134 104.157 61.602 106.699.054-.032.022.038.066-.038c.37.641.714 1.29 1.035 1.946l60.534 104.845h123.183v-.126h123.256zM1236.469 656l27.624 16-69.65 120.638c-5.189 10.672-16.133 18.029-28.796 18.029h-141.644v-.125h-138.76c-12.03 1.08-24.16-4.727-30.596-15.874l.066-.038-69.723-120.764a32.366 32.366 0 0 1-1.166-1.865l27.714-16-27.625 15.875L714.645 551.9c-7.034-9.89-8.106-23.37-1.642-34.567l.12.07 69.331-120.085a32.23 32.23 0 0 1 1.37-2.651l27.714 16-27.625-16 69.65-120.638C858.754 263.357 869.698 256 882.36 256h141.644v.125h138.76c12.03-1.08 24.16 4.727 30.597 15.874l-.067.038 69.723 120.764c.407.605.796 1.225 1.166 1.865l-27.713 16 27.625-15.875 69.268 119.976c7.033 9.89 8.106 23.37 1.641 34.567l-.12-.07-69.33 120.085a32.23 32.23 0 0 1-1.37 2.651l-27.714-16zM1147.26 1728l61.562-106.628-.067-.038a32.484 32.484 0 0 1 1.611-2.51l60.134-104.157-61.602-106.699-.054.032-.022-.038-.067.038a32.792 32.792 0 0 1-1.034-1.946l-60.534-104.845h-123.183v.126H900.748l-61.562 106.628.066.038a32.484 32.484 0 0 1-1.61 2.51l-60.134 104.157 61.602 106.699.054-.032.022.038.066-.038c.37.641.714 1.29 1.035 1.946l60.534 104.845h123.183V1728h123.256zm89.209-90.665 27.624 16-69.65 120.638c-5.189 10.672-16.133 18.029-28.796 18.029h-141.644v-.125h-138.76c-12.03 1.08-24.16-4.727-30.596-15.874l.066-.038L784.99 1655.2a32.366 32.366 0 0 1-1.166-1.865l27.714-16-27.625 15.875-69.268-119.976c-7.034-9.89-8.106-23.37-1.642-34.567l.12.07 69.331-120.085a32.23 32.23 0 0 1 1.37-2.651l27.714 16-27.625-16 69.65-120.638c5.19-10.672 16.134-18.029 28.796-18.029h141.644v.125h138.76c12.03-1.08 24.16 4.727 30.597 15.874l-.067.038 69.723 120.764c.407.605.796 1.225 1.166 1.865l-27.713 16 27.625-15.875 69.268 119.976c7.033 9.89 8.106 23.37 1.641 34.567l-.12-.07-69.33 120.085a32.23 32.23 0 0 1-1.37 2.651l-27.714-16z"/>
        <path class="fil0"
              d="M1325.67 991.999h246.511l61.563-106.629-.067-.038a32.484 32.484 0 0 1 1.611-2.51l60.097-104.094L1633.765 672l-61.584-106.665H1325.596l-61.51 106.541L1236.46 656l27.714 16c-.37.64-.76 1.26-1.166 1.865L1202.5 778.667l61.585 106.667L1325.67 992zm123.255 64.002h-141.213c-11.2.139-22.146-5.612-28.143-16l.066-.039-70.8-122.628-69.698-120.722c-6.645-9.829-7.542-22.981-1.212-33.946l27.713 16-27.625-16 69.7-120.72c.321-.656.665-1.306 1.034-1.947l.067.038.022-.038.054.032 69.272-119.984c5.047-11.042 16.187-18.716 29.12-18.716H1590.14c11.2-.14 22.146 5.611 28.143 16l-.066.038 70.8 122.628 69.698 120.722c6.645 9.83 7.542 22.982 1.212 33.946l-.12-.07-69.331 120.086a32.23 32.23 0 0 1-1.37 2.651l-27.713-16 27.624 16-69.652 120.64c-5.188 10.67-16.132 18.028-28.795 18.028h-141.644zM475.815 1482.67H722.4l61.51-106.541 27.626 15.875-27.714-16c.37-.64.76-1.26 1.166-1.865l60.508-104.802-61.585-106.667-61.584-106.665H475.816l-61.563 106.629.066.038a32.484 32.484 0 0 1-1.61 2.51l-60.098 104.094 61.62 106.729 61.585 106.665zm123.255 64.002H457.857c-11.2.139-22.146-5.612-28.143-16l.066-.039-70.8-122.628-69.698-120.722c-6.645-9.829-7.542-22.981-1.212-33.946l.12.07 69.331-120.085a32.23 32.23 0 0 1 1.37-2.652l27.714 16-27.625-16 69.652-120.639c5.188-10.67 16.132-18.028 28.795-18.028H740.284c11.2-.14 22.146 5.611 28.143 16l-.066.038 70.8 122.628 69.698 120.722c6.645 9.83 7.542 22.982 1.212 33.946l-27.713-16 27.625 16-69.7 120.721a32.787 32.787 0 0 1-1.034 1.947l-.066-.038-.023.038-.054-.032-69.272 119.984c-5.047 11.042-16.187 18.716-29.12 18.716H599.07z"/>
        <path class="fil0"
              d="m1202.47 1269.27 61.62 106.728-27.625 16 27.713-16c.503.87.958 1.756 1.37 2.652l60.052 104.015h246.66l61.51-106.541 27.625 15.875-27.713-16c.37-.64.76-1.26 1.166-1.866l60.542-104.863-61.62-106.729-61.51-106.54H1325.6l-61.51 106.54-61.62 106.73zm6.347 138.691-69.675-120.683c-6.645-9.828-7.542-22.982-1.212-33.946l.12.07 70.79-122.612 69.326-120.077c5.047-11.043 16.187-18.716 29.12-18.716h282.858c11.199-.14 22.146 5.611 28.143 16l-27.713 16 27.625-15.875 70.82 122.667 69.269 119.976c7.033 9.89 8.106 23.37 1.642 34.567l-27.714-16 27.625 16-69.698 120.719a32.787 32.787 0 0 1-1.035 1.946l-.066-.038-.022.038-.055-.032-69.271 119.984c-5.047 11.042-16.187 18.716-29.12 18.716h-282.858c-11.2.14-22.146-5.611-28.144-16l27.714-16-27.625 15.874-69.299-120.03a32.48 32.48 0 0 1-1.61-2.512l.065-.037zM352.61 778.729l61.62 106.729 61.51 106.541H722.4l61.51-106.541 61.62-106.729-61.62-106.728 27.626-16-27.714 16a32.227 32.227 0 0 1-1.37-2.652L722.4 565.334H475.74l-61.51 106.541L386.604 656l27.713 16c-.37.64-.76 1.26-1.166 1.866L352.61 778.729zm6.37 138.48L289.71 797.233c-7.033-9.89-8.105-23.37-1.641-34.566l27.713 16-27.625-16 69.698-120.72c.322-.655.665-1.304 1.035-1.946l.066.038.023-.038.054.032 69.272-119.984c5.047-11.042 16.187-18.716 29.12-18.716h282.858c11.199-.139 22.146 5.612 28.143 16l-27.713 16.001 27.625-15.875 69.298 120.031a32.48 32.48 0 0 1 1.611 2.511l-.066.038 69.676 120.683c6.645 9.828 7.541 22.982 1.212 33.946l-.12-.07-70.79 122.612-69.326 120.077c-5.047 11.042-16.187 18.716-29.12 18.716H457.856c-11.2.14-22.146-5.611-28.144-16l27.714-16-27.625 15.874L358.98 917.21z"/></g>
    <path style="fill:none" d="M0 0h2048v2048H0z"/></svg>